<svg width="20" height="18" viewBox="0 0 20 18" fill="none" xmlns="http://www.w3.org/2000/svg">
<path d="M1.97686 0C2.25212 0 2.45232 0 2.65251 0C7.65738 0 12.6622 0 17.6671 0C19.2311 0 19.9944 0.764092 19.9944 2.35491C19.9944 3.20668 20.0069 4.07098 19.9944 4.92276C19.9819 6.17537 19.1561 7.00209 17.9174 7.01461C17.2917 7.02714 16.6786 7.01461 16.003 7.01461C16.003 7.99165 16.003 8.89353 16.003 9.80793C15.9905 12.3132 14.3013 14.0167 11.8114 14.0292C9.93459 14.0292 8.05777 14.0418 6.18094 14.0292C3.71605 14.0167 2.00188 12.3257 2.00188 9.87056C1.96434 6.60125 1.97686 3.35699 1.97686 0ZM16.0405 2.0167C16.0405 2.99374 16.0405 3.9833 16.0405 4.97286C16.6912 4.97286 17.3168 4.97286 17.9424 4.97286C17.9424 3.97077 17.9424 2.99374 17.9424 2.0167C17.2917 2.0167 16.6912 2.0167 16.0405 2.0167Z" fill="#C4C4C4"/>
<path d="M17.955 16.0713C17.955 16.7226 17.955 17.349 17.955 18.0003C11.9616 18.0003 5.99333 18.0003 0 18.0003C0 17.349 0 16.7352 0 16.0713C5.9683 16.0713 11.9366 16.0713 17.955 16.0713Z" fill="#C4C4C4"/>
</svg>
