<svg width="20" height="16" viewBox="0 0 20 16" fill="none" xmlns="http://www.w3.org/2000/svg">
<path d="M20 4.21434C19.7667 4.4347 19.5335 4.65506 19.3069 4.8821C19.0803 5.10914 18.867 5.34953 18.6271 5.60995C16.1946 3.25277 13.3356 2.01074 9.99 2.01074C6.65778 2.01074 3.81206 3.25277 1.44618 5.54318C0.973009 5.07575 0.519827 4.62167 0 4.10082C0.71976 3.53991 1.41953 2.90553 2.19927 2.38468C7.75075 -1.30134 14.9084 -0.660294 19.7467 3.93388C19.8267 4.00734 19.9134 4.07411 20 4.14089C20 4.1676 20 4.18763 20 4.21434Z" fill="#C4C4C4"/>
<path d="M9.66998 15.833C9.58334 15.7929 9.4967 15.7462 9.4034 15.7061C8.69697 15.4056 8.30376 14.6644 8.45038 13.9099C8.597 13.162 9.25678 12.6211 10.0232 12.6211C10.7829 12.6278 11.4427 13.1753 11.5827 13.9232C11.7226 14.6711 11.3161 15.4123 10.603 15.7061C10.5097 15.7462 10.4231 15.7863 10.3298 15.8263C10.1098 15.833 9.8899 15.833 9.66998 15.833Z" fill="#C4C4C4"/>
<path d="M4.25845 8.36814C3.78527 7.90071 3.33209 7.45331 2.87891 6.99924C6.32442 3.25979 13.0089 2.76565 17.1142 6.95917C16.6543 7.41325 16.1878 7.86732 15.7146 8.33475C14.1551 6.83898 12.2425 5.9976 9.98987 6.00428C7.74395 6.01096 5.83792 6.84565 4.25845 8.36814Z" fill="#C4C4C4"/>
<path d="M14.335 9.81041C13.8619 10.2778 13.4087 10.7319 12.9555 11.1793C11.1761 9.49656 8.61029 9.67686 7.0708 11.1726C6.61762 10.7186 6.16444 10.2712 5.70459 9.81709C7.53065 7.67358 11.7226 7.1327 14.335 9.81041Z" fill="#C4C4C4"/>
</svg>
