<svg width="20" height="20" viewBox="0 0 20 20" fill="none" xmlns="http://www.w3.org/2000/svg">
<path d="M6.28438 17.353C6.15378 17.3571 6.07215 17.3041 6.00073 17.2329C5.49056 16.734 4.97631 16.2392 4.47022 15.7383C3.89884 15.1722 3.33561 14.596 2.76014 14.034C2.63158 13.9077 2.59893 13.7754 2.64995 13.6268C2.76218 13.2908 2.87442 12.9507 3.01523 12.6249C3.92128 10.5175 5.18038 8.63397 6.69455 6.91745C8.10057 5.3231 9.69638 3.94663 11.4922 2.80839C12.1289 2.40522 12.7941 2.05092 13.4451 1.67218C13.5124 1.63349 13.541 1.66811 13.5818 1.7068C14.2185 2.34209 14.8572 2.97739 15.4939 3.61472C16.4265 4.54527 17.3591 5.47785 18.2937 6.40636C18.3529 6.46541 18.357 6.5041 18.3202 6.5774C17.5244 8.1351 16.5591 9.57877 15.4205 10.9064C14.7001 11.7453 13.9185 12.5252 13.0961 13.2643C11.2106 14.9584 9.09642 16.2962 6.72924 17.2227C6.6068 17.2716 6.48028 17.3103 6.35376 17.351C6.32315 17.353 6.2905 17.351 6.28438 17.353ZM7.63122 11.1222C7.56388 11.8634 8.25158 12.3765 8.85562 12.3724C9.53516 12.3663 10.1025 11.8064 10.1004 11.1243C10.0984 10.5521 9.70046 9.88013 8.75767 9.89439C8.14751 9.90457 7.63122 10.4584 7.63122 11.1222ZM12.3941 8.8152C13.1125 8.89054 13.6471 8.16565 13.641 7.59754C13.6369 7.01723 13.1288 6.34731 12.3594 6.35342C11.7452 6.35749 11.1289 6.91745 11.1555 7.60773C11.182 8.31633 11.6738 8.8152 12.3941 8.8152Z" fill="#E5E5E5"/>
<path d="M18.7653 5.61827C17.2981 4.17256 15.8288 2.72686 14.3452 1.26486C14.6289 1.15287 14.8942 1.04291 15.1635 0.941104C16.1492 0.564406 17.1613 0.29359 18.2 0.13273C18.6184 0.0675711 19.0428 0.0248108 19.4673 0.00241249C19.8836 -0.0199858 20.0019 0.110331 19.9999 0.52979C19.9958 1.24246 19.8713 1.93885 19.7183 2.63319C19.4918 3.6574 19.1734 4.65515 18.7571 5.61827C18.751 5.63049 18.7449 5.64271 18.7388 5.65289C18.7469 5.64067 18.7571 5.62845 18.7653 5.61827Z" fill="#E5E5E5"/>
<path d="M6.97031 5.98269C6.92949 6.03156 6.89276 6.08247 6.84787 6.12726C5.62551 7.39989 4.58885 8.80895 3.70728 10.3341C3.3971 10.8716 3.11957 11.4255 2.83183 11.9752C2.78694 12.0608 2.74408 12.0811 2.65021 12.0547C1.8666 11.8307 1.08298 11.6148 0.299363 11.3929C0.050401 11.3216 -0.0618358 11.0834 0.0340756 10.839C0.0646856 10.7617 0.10754 10.6863 0.152434 10.6151C1.18705 9.00239 2.54002 7.72772 4.24602 6.84604C5.06432 6.42251 5.92753 6.12319 6.83766 5.96029C6.87644 5.95419 6.91521 5.95418 6.95398 5.95215C6.9601 5.96233 6.96419 5.97251 6.97031 5.98269Z" fill="#E5E5E5"/>
<path d="M7.90088 17.1885C9.01917 16.6509 10.0946 16.0461 11.117 15.3457C12.1373 14.6473 13.0883 13.8613 13.9984 13.0244C14.0106 13.0326 14.0249 13.0407 14.0372 13.0488C14.029 13.116 14.0229 13.1832 14.0106 13.2504C13.7066 14.8489 12.9944 16.2518 11.9741 17.5061C11.2292 18.4224 10.3538 19.1941 9.34975 19.8192C9.27017 19.8701 9.1865 19.917 9.09875 19.9516C8.92121 20.0208 8.7498 19.9618 8.67225 19.7887C8.59471 19.6156 8.5294 19.4364 8.47635 19.2552C8.28248 18.5812 8.09474 17.9052 7.90496 17.2312C7.90292 17.2231 7.90292 17.2129 7.90088 17.1885Z" fill="#E5E5E5"/>
<path d="M5.2338 17.701C5.09708 17.8049 4.96443 17.923 4.81547 18.0146C4.23183 18.3771 3.60943 18.6682 2.9707 18.9167C2.04832 19.2771 1.11777 19.613 0.18927 19.9592C0.146416 19.9755 0.0994811 19.9836 0.0341797 19.9999C0.109684 19.782 0.174986 19.5845 0.246409 19.3891C0.672909 18.2162 1.10349 17.0434 1.65651 15.9214C1.83405 15.563 2.01771 15.2067 2.28912 14.9053C2.31361 14.8789 2.34014 14.8524 2.3585 14.832C3.31149 15.785 4.26244 16.7318 5.2338 17.701Z" fill="#E5E5E5"/>
</svg>
