<svg width="36" height="36" viewBox="0 0 36 36" fill="none" xmlns="http://www.w3.org/2000/svg">
<circle cx="18" cy="18" r="17.5" stroke="#E5E5E5"/>
<path d="M18.3 16.7571C19.9256 18.3884 21.4531 19.9327 22.9667 21.4555C23.3758 21.867 24.0742 21.8353 24.4853 21.4259C24.8978 21.0152 24.8646 20.3805 24.4521 19.9698C22.6174 18.143 20.7773 16.3109 18.9612 14.5027C18.571 14.1142 17.9403 14.1142 17.5503 14.5029C15.8016 16.2461 13.9963 18.0517 12.1839 19.8495C11.7543 20.2756 11.7195 20.9346 12.1606 21.3487C12.579 21.7415 13.272 21.7661 13.6799 21.3625C15.1455 19.9122 16.6793 18.3833 18.3 16.7571Z" fill="#E5E5E5"/>
</svg>
