<svg width="32" height="30" viewBox="0 0 32 30" fill="none" xmlns="http://www.w3.org/2000/svg">
<path d="M16.6745 30.0004C14.4205 30.0004 12.241 30.0004 10.0019 30.0004C10.0019 29.7765 10.0019 29.5824 10.0019 29.3734C10.0019 22.7754 10.0019 16.1625 9.98694 9.56443C9.98694 9.01211 10.1511 8.87776 10.6736 8.89269C12.4649 8.92254 14.2563 8.90762 16.0476 8.90762C16.2267 8.90762 16.4208 8.90762 16.6447 8.90762C16.6447 9.81821 16.6447 10.6989 16.6447 11.7289C16.8835 11.4901 17.0179 11.3707 17.1522 11.2363C20.093 8.37022 25.1982 8.11645 28.2136 10.684C29.9602 12.1768 30.7215 14.1622 30.9902 16.3714C31.0797 17.1328 31.0947 17.8941 31.0947 18.6554C31.1096 22.2231 31.0947 25.7759 31.0947 29.3436C31.0947 29.5377 31.0947 29.7466 31.0947 29.9855C28.8704 29.9855 26.691 29.9855 24.422 29.9855C24.422 29.7765 24.422 29.5675 24.422 29.3436C24.422 25.9998 24.422 22.6709 24.422 19.3271C24.422 18.7449 24.3921 18.1628 24.2727 17.6104C23.8697 15.5654 22.4366 14.401 20.4214 14.4309C18.4957 14.4607 17.1373 15.6549 16.779 17.7C16.6895 18.1777 16.6596 18.6703 16.6596 19.148C16.6447 22.5366 16.6596 25.9401 16.6596 29.3287C16.6745 29.5376 16.6745 29.7466 16.6745 30.0004Z" fill="#E5E5E5"/>
<path d="M6.62827 29.9995C4.4339 29.9995 2.25446 29.9995 0.045166 29.9995C0.045166 22.9835 0.045166 15.9824 0.045166 8.93652C2.23953 8.93652 4.40404 8.93652 6.62827 8.93652C6.62827 15.9376 6.62827 22.9387 6.62827 29.9995Z" fill="#E5E5E5"/>
<path d="M3.44863 5.57822C2.47833 5.54836 1.65731 5.3543 0.970634 4.78705C-0.492277 3.57791 -0.268362 1.38354 1.41846 0.487883C2.59775 -0.139078 3.85167 -0.154006 5.07574 0.398318C6.16546 0.89093 6.79242 2.02543 6.64315 3.10022C6.47894 4.33922 5.56835 5.23488 4.23979 5.48865C3.95617 5.53343 3.65761 5.56329 3.44863 5.57822Z" fill="#E5E5E5"/>
</svg>
