<svg width="155" height="155" viewBox="0 0 155 155" fill="none" xmlns="http://www.w3.org/2000/svg">
<ellipse cx="77.4223" cy="77.5" rx="77.4223" ry="77.5" fill="white"/>
<path fill-rule="evenodd" clip-rule="evenodd" d="M141.198 77.5004C141.198 112.68 112.679 141.199 77.4994 141.199C42.3196 141.199 13.8008 112.68 13.8008 77.5004C13.8008 42.3206 42.3196 13.8018 77.4994 13.8018C112.679 13.8018 141.198 42.3206 141.198 77.5004ZM80.3004 105.944C81.6803 102.764 82.9236 97.0447 83.2706 93.4557C83.4603 91.0818 83.1224 85.6146 82.9157 82.2691L82.9156 82.2675C82.8621 81.403 82.8175 80.6803 82.793 80.1895H83.2706L86.9719 82.3408L91.9867 88.197L85.5391 90.4678L90.9121 95.368L77.0618 113.654L63.2114 95.368L68.465 90.3483L62.0174 88.197L66.9128 82.4603L70.6142 80.309H71.0918C70.853 82.5798 70.3754 90.5873 70.6142 93.5752C70.9724 97.1607 72.2858 103.256 73.7186 106.363L73.7566 106.439L73.7996 106.523L74.6708 90.8262C74.6708 90.3482 75.1484 89.9896 75.626 89.9896H75.8446C74.7805 89.9784 73.9559 89.1467 73.9559 88.197V87.2409L75.2693 85.3286C75.5081 85.2091 75.6275 85.2091 75.8663 85.2091H78.1349C78.2748 85.2091 78.4147 85.2501 78.5306 85.2841C78.6125 85.3081 78.6825 85.3286 78.7319 85.3286L80.0453 87.1214V88.197C80.0453 89.1467 79.2208 89.9784 78.1567 89.9896H78.611C79.0886 89.9896 79.5662 90.3482 79.5662 90.8262L80.3004 105.944ZM76.8867 112.118L76.6473 111.809L76.823 112.22L76.8867 112.118ZM89.4748 83.4164L101.057 88.6751C101.534 88.9141 102.012 89.1531 102.251 89.6312L102.012 90.7068L96.3999 116.761V117H76.9378H75.9826H57.4756V116.761L51.8638 90.7068L51.625 89.6312C51.9832 89.2726 52.4608 88.9141 52.9384 88.6751L64.5202 83.4164L59.983 88.9141L66.1918 91.0654L61.5352 95.2484L77.0572 115.686L92.4597 95.1289L87.8032 90.9459L94.0119 88.7946L89.4748 83.4164ZM56.2834 117L50.6716 90.946C50.4328 91.4241 50.3134 91.9021 50.3134 92.3802L49 117H56.2834ZM97.717 117H105L103.687 92.3801C103.687 91.902 103.568 91.4239 103.329 90.9459L97.717 117ZM62.1678 56.0259C62.1569 56.033 62.146 56.0402 62.1353 56.0473L61.4189 54.8522L59.3891 51.3862C57.1205 51.3862 54.4937 48.5179 57.1205 45.8885C59.8667 43.0201 66.5531 38.0005 76.8215 38.0005C86.9705 38.0005 93.7762 43.0201 96.5224 45.8885C99.0298 48.6374 96.5224 51.5057 94.015 51.1472L91.8659 54.7327L91.8456 54.7664C91.8517 54.7949 91.8576 54.8235 91.8634 54.852L91.147 56.0472C90.9383 55.9079 90.6891 55.8092 90.423 55.7039C90.2323 55.6283 90.033 55.5494 89.8336 55.4496L88.2433 54.8129L88.1647 54.8522L87.4483 55.2108C87.3289 55.2705 87.2394 55.3004 87.1498 55.3303C87.0603 55.3602 86.9707 55.3901 86.8513 55.4498C86.7916 55.4498 86.7618 55.4797 86.7319 55.5096C86.718 55.5236 86.704 55.5375 86.687 55.5485C86.7016 55.555 86.7163 55.5619 86.731 55.5692C86.7907 55.5692 86.8504 55.5991 86.9101 55.629C86.9698 55.6588 87.0295 55.6887 87.0892 55.6887C87.328 55.8082 87.6862 55.9278 88.0444 56.0473C88.234 56.1286 88.4297 56.2099 88.6288 56.2926C89.3074 56.5746 90.025 56.8728 90.6712 57.2424C90.6712 57.2424 90.6712 57.3619 90.7906 57.3619L91.9846 57.84L92.4622 57.0034V57.9595C92.4622 59.1547 92.3428 60.2303 91.9846 61.4255C91.8652 61.545 91.8652 61.784 91.9846 61.784C92.4622 62.8597 92.4622 64.7719 91.9846 66.6842C91.3876 68.955 90.0742 71.3453 88.522 71.3453H88.1638C88.1638 71.3453 88.0444 71.2257 87.925 71.2257C85.6564 76.2454 81.7162 80.6675 76.9402 80.6675C72.1642 80.6675 68.224 76.2454 65.9555 71.2257C65.9555 71.3453 65.8361 71.3453 65.7167 71.3453H65.3585C63.8063 71.3453 62.4929 68.955 61.8959 66.6842C61.2989 64.6524 61.2989 62.8597 61.8959 61.784C61.8959 61.7243 61.866 61.6346 61.8362 61.545C61.8063 61.4554 61.7765 61.3657 61.7765 61.306V61.1864C61.4183 60.1108 61.2989 59.0352 61.2989 57.84V56.7644L61.8959 57.7205L62.9705 57.1229H63.0899C63.7361 56.7533 64.4537 56.4551 65.1323 56.1731L65.1323 56.1731L65.133 56.1728L65.134 56.1724C65.3325 56.0899 65.5276 56.0089 65.7167 55.9278C66.0749 55.8082 66.4331 55.6887 66.6719 55.5692C66.7007 55.5692 66.7277 55.5675 66.7533 55.5644C66.7179 55.5547 66.6953 55.5322 66.6728 55.5096C66.6429 55.4797 66.6131 55.4498 66.5534 55.4498C66.434 55.3901 66.3444 55.3602 66.2549 55.3303C66.1653 55.3004 66.0758 55.2705 65.9564 55.2108L65.24 54.8522L65.1786 54.8215C64.712 55.0543 64.0924 55.3582 63.5656 55.5691C63.088 55.6886 62.6104 55.9277 62.2522 56.1667L62.1678 56.0259ZM64.2848 53.179H64.3661C64.3485 53.1391 64.3219 53.0992 64.282 53.0593L64.3376 53.0037C64.3232 52.9825 64.3057 52.9612 64.2845 52.9399L64.3386 52.8858C64.3241 52.864 64.3063 52.8422 64.2845 52.8204L64.3386 52.7663C64.3241 52.7445 64.3063 52.7227 64.2845 52.7009L64.6427 52.3424C64.8815 52.1033 65.1203 51.8942 65.3591 51.685C65.5979 51.4759 65.8367 51.2667 66.0755 51.0277C68.8217 48.7569 72.6425 46.7251 76.7021 46.7251C80.8811 46.7251 84.5825 48.6374 87.4481 51.0277L87.1862 51.0515C87.2742 51.1228 87.3615 51.1945 87.4481 51.2667C87.9257 51.6253 88.4033 52.1033 88.8809 52.5814L88.9406 52.6411L88.8809 52.4619L89.2391 52.8204C89.2173 52.8422 89.1995 52.864 89.1849 52.8858L89.2391 52.9399C89.2168 52.9622 89.1987 52.9844 89.184 53.0067L89.2366 53.0593C89.1826 53.1133 89.1531 53.1673 89.1368 53.2213L89.3587 53.7766L89.5975 54.0156C89.5975 54.0156 89.5975 54.0156 89.5973 54.0156C89.7167 54.1351 89.9555 54.1351 90.0749 54.1351C90.5445 54.1351 90.8987 53.7883 91.0239 53.2085C90.9787 52.665 90.5256 52.3422 90.0724 52.3422H89.724C89.7215 52.3423 89.7191 52.3424 89.7167 52.3424C89.7166 52.3423 89.7165 52.3423 89.7165 52.3422H89.7142C89.4754 52.1629 89.2664 51.9538 89.0575 51.7446C88.8485 51.5355 88.6396 51.3263 88.4008 51.1471V51.2666C85.4158 48.6372 81.2368 46.3664 76.819 46.3664C72.2818 46.3664 68.2222 48.6372 65.2372 51.2666L65.1178 51.3861C64.6402 51.7446 64.1626 52.1032 63.8044 52.5812C63.685 52.4617 63.5656 52.4617 63.4462 52.4617C62.882 52.4617 62.5311 52.8888 62.4943 53.3392C62.5154 53.9123 62.9821 54.2546 63.4487 54.2546C63.6875 54.2546 63.8069 54.2546 63.9262 54.1351C63.9192 54.135 63.8072 54.1314 63.8072 54.0156C63.9266 54.0156 64.046 53.8961 64.046 53.7766L64.2848 53.179ZM78.8488 50.249C78.8363 50.392 78.778 50.4932 78.7061 50.6177C78.6765 50.6691 78.6445 50.7246 78.6125 50.7887C78.6311 50.792 78.6498 50.7953 78.6684 50.7986C78.6493 50.8326 78.6297 50.8687 78.61 50.908C78.6302 50.9116 78.6504 50.9152 78.6706 50.9188C78.6516 50.9526 78.632 50.9886 78.6125 51.0277C78.2543 51.6253 77.6573 51.9838 76.9409 51.9838C76.2245 51.9838 75.5081 51.6253 75.2693 51.0277C75.1499 50.9082 75.0305 50.6691 75.0305 50.4301V49.952V49.713C75.1499 48.7569 75.9857 47.9203 77.0603 47.9203C77.3362 47.9203 77.5964 47.9755 77.8328 48.0737C78.388 48.3965 78.7709 48.9695 78.8488 49.5934V49.8324V50.249ZM65.8361 66.5646C65.7197 61.675 66.6231 58.2596 67.7736 55.9871C70.3734 57.0384 73.5379 57.9597 76.7024 57.9597C80.0456 57.9597 83.2693 57.0035 85.7767 55.9279C85.8109 55.9108 85.8426 55.8961 85.8723 55.8832C85.8799 55.8976 85.8876 55.9124 85.8952 55.9278C86.9698 58.3181 87.925 61.784 87.925 66.6842C87.9847 66.6244 88.0444 66.5945 88.1041 66.5646C88.1638 66.5348 88.2235 66.5049 88.2832 66.4451C86.8504 72.5404 82.3132 79.4723 76.9402 79.4723C72.7612 79.4723 69.0598 75.2893 66.9106 70.5087V70.3891L66.7912 70.0306C66.3137 68.8354 65.9555 67.6403 65.5973 66.4451C65.7167 66.5646 65.7167 66.5646 65.8361 66.5646ZM62.9705 66.4451C63.5675 68.955 64.8809 70.2696 65.2391 70.1501C64.7615 68.955 64.4033 67.7598 64.1645 66.4451C63.5675 65.728 63.0899 64.8914 62.6123 63.9353C62.6123 64.6524 62.7317 65.489 62.9705 66.4451ZM88.4026 70.1501C88.8802 70.1501 90.0742 68.955 90.6712 66.4451C90.8377 65.7785 90.9462 65.17 91.037 64.6601C91.0765 64.4386 91.1126 64.2358 91.1488 64.0548C90.6712 64.8914 90.1936 65.728 89.5966 66.4451C89.5302 66.6666 89.4638 66.8923 89.3967 67.1205C89.1015 68.1235 88.7917 69.1765 88.4026 70.1501Z" fill="#FFB628" fill-opacity="0.79"/>
</svg>
