<svg width="155" height="155" viewBox="0 0 155 155" fill="none" xmlns="http://www.w3.org/2000/svg">
<ellipse cx="77.4223" cy="77.5" rx="77.4223" ry="77.5" fill="white"/>
<path fill-rule="evenodd" clip-rule="evenodd" d="M141.198 77.5004C141.198 112.68 112.679 141.199 77.4994 141.199C42.3196 141.199 13.8008 112.68 13.8008 77.5004C13.8008 42.3206 42.3196 13.8018 77.4994 13.8018C112.679 13.8018 141.198 42.3206 141.198 77.5004ZM60.089 108.5V102.768H74.3151V97.0347H37.1575C37.2637 79.9423 37.2637 62.8498 37.2637 45.6512H117.312V97.0347H80.1541V102.768H94.3801V108.5H60.089ZM42.9966 91.3019H111.579V51.2779H42.9966V91.3019ZM102.342 81.3225C102.236 81.3225 100.431 81.5348 99.263 82.4903C98.4137 83.2335 98.3075 84.2951 98.2014 85.4629L55.948 85.2506C56.3726 84.1889 55.948 83.0211 55.2048 82.278C54.2493 81.4287 53.4 81.2163 52.0199 81.3225L52.126 59.9835C52.0907 59.9835 52.185 59.9717 52.3423 59.952C52.6569 59.9127 53.2231 59.8419 53.5062 59.7711C54.9925 59.4526 55.7356 58.391 56.4788 56.6924C56.6121 56.4258 56.6617 56.1592 56.7064 55.9189C56.7329 55.7764 56.7578 55.6431 56.7973 55.5246L98.3075 55.7369C98.626 58.2848 100.112 59.5588 102.448 59.8773L102.342 81.3225ZM62.424 68.7951V71.0246L70.2802 70.8122V68.5828L62.424 68.7951ZM62.424 64.3362V66.5657L79.3041 66.2472V64.0177L62.424 64.3362ZM88.2219 59.1342C88.2219 59.7711 88.3281 60.0896 88.7528 60.302C89.3897 60.6205 90.1329 60.0896 90.1329 59.3465V56.5862H88.2219V59.1342ZM88.2219 65.2917C88.2219 65.8225 88.2219 66.141 88.5404 66.3533C89.1774 66.778 90.0267 66.2472 90.1329 65.504V63.8054C90.1329 63.1684 89.7082 62.8499 89.0713 62.8499C88.1533 62.9417 88.1878 64.0654 88.214 64.9169C88.218 65.0501 88.2219 65.1767 88.2219 65.2917ZM88.1158 71.2369C88.1158 71.7677 88.1158 72.2985 88.6466 72.5109C89.2836 72.8294 90.1329 72.4047 90.0267 71.5554V69.8568C90.0267 69.3259 89.6021 68.9013 89.0713 68.9013C88.5404 68.9013 88.1158 69.3259 88.1158 69.8568V71.2369ZM88.9651 78.3499H89.2836C89.7082 78.3499 90.1329 77.9252 90.1329 77.5006V75.802C90.1329 75.3773 89.7082 74.9526 89.2836 74.9526H88.9651C88.5404 74.9526 88.2219 75.2711 88.2219 75.6958V77.6068C88.2219 78.0314 88.5404 78.3499 88.9651 78.3499ZM88.2219 81.3225C87.9034 82.278 88.1158 84.5074 88.1158 84.5074H90.1329V81.5348C90.1329 80.7917 89.1774 80.2609 88.5404 80.7917C88.3281 80.8979 88.2219 81.1102 88.2219 81.3225Z" fill="#FFB628" fill-opacity="0.79"/>
</svg>
