<svg width="155" height="155" viewBox="0 0 155 155" fill="none" xmlns="http://www.w3.org/2000/svg">
<ellipse cx="77.4223" cy="77.5" rx="77.4223" ry="77.5" fill="white"/>
<path fill-rule="evenodd" clip-rule="evenodd" d="M142 76C142 111.899 112.899 141 77 141C41.1015 141 12 111.899 12 76C12 40.1015 41.1015 11 77 11C112.899 11 142 40.1015 142 76ZM96.5542 108.443C97.9372 107.262 100.412 106.926 100.412 106.926L100.483 79.7038C97.4662 79.2204 95.533 77.6349 95.1931 74.3678L42.6051 74.0239C42.4922 74.2199 42.4636 74.4596 42.4333 74.7146C42.405 74.9524 42.3751 75.2035 42.2736 75.4449C41.3194 77.5741 40.3732 78.9112 38.4564 79.395C38.003 79.5152 37.1646 79.6243 36.8372 79.6669C36.7324 79.6806 36.68 79.6874 36.7094 79.6856L36.6303 106.787C38.3854 106.617 39.5016 106.914 40.6744 108.059C41.645 108.912 42.1142 110.467 41.5401 111.903L95.1067 112.308L95.1153 112.242L95.1316 112.116L95.1531 111.946C95.3295 110.554 95.4891 109.294 96.5542 108.443ZM49.7724 93.7967L49.7075 90.9998L59.6233 90.8135L59.6882 93.6104L49.7724 93.7967ZM49.7558 88.0741L49.691 85.2771L71.1079 84.9283L71.1728 87.7253L49.7558 88.0741ZM83.102 80.2904C82.6005 80.0779 82.4468 79.6002 82.4549 78.8082C82.4467 77.7735 82.4385 76.7389 82.4223 75.583L84.8568 75.5544L84.8408 78.9652C84.849 79.9998 83.9189 80.6662 83.102 80.2904ZM82.8761 87.8548C82.5525 87.5703 82.4069 87.214 82.423 86.5432C82.4219 86.3936 82.4143 86.2242 82.4061 86.0434L82.4061 86.0429C82.3581 84.9728 82.2923 83.5067 83.4338 83.4362C84.2831 83.3838 84.8007 83.8389 84.7927 84.631L84.7524 86.7646C84.8252 87.8561 83.7092 88.4731 82.8761 87.8548ZM83.0383 95.7605C82.3509 95.4985 82.367 94.8277 82.3831 94.1569C82.3916 93.9654 82.3921 93.767 82.3927 93.5638V93.5637C82.3939 93.1838 82.395 92.787 82.4477 92.3871C82.4638 91.7163 82.9733 91.1368 83.6446 91.1563C84.3159 91.1757 84.8983 91.6877 84.8822 92.3585L84.9066 94.549C84.85 95.5268 83.92 96.1931 83.0383 95.7605ZM83.8315 103.079L83.4675 103.102C82.9175 103.075 82.5859 102.669 82.5535 102.184L82.5776 99.8077C82.6018 99.2582 83.0062 98.9288 83.4915 98.8988L83.8554 98.8763C84.4054 98.9032 84.9231 99.3584 84.8989 99.9079L84.9233 102.098C84.899 102.648 84.4381 103.042 83.8315 103.079ZM82.4004 110.84C82.4004 110.84 82.2142 108.05 82.4972 106.815C82.6023 106.565 82.7075 106.315 82.8773 106.122C83.6213 105.406 84.8831 106.059 84.8913 107.093L84.8996 110.868L82.4004 110.84ZM99.4968 68.5614L99.8205 71.5859C99.9743 72.9769 100.387 73.6821 102.166 73.8766L105.118 74.3032L105.103 80.4541L114.913 80.5178C114.933 80.3824 114.952 80.2471 114.971 80.1123C115.15 78.8395 115.323 77.6099 116.369 76.7745C117.752 75.593 120.227 75.2575 120.227 75.2575L120.427 48.1489C117.41 47.6655 115.477 46.08 115.137 42.8129L62.4845 42.4121C62.3715 42.6081 62.343 42.8478 62.3126 43.1028C62.2843 43.3406 62.2544 43.5917 62.153 43.8331C61.1987 45.9623 60.2525 47.2994 58.3357 47.7832C57.7646 47.9347 56.6412 48.1203 56.5887 48.081L56.5887 48.0738C56.5861 48.0767 56.5862 48.0791 56.5887 48.081L56.5335 68.2318L99.4968 68.5614ZM69.6518 62.1849L69.5869 59.388L79.5027 59.2016L79.5676 61.9986L69.6518 62.1849ZM103.427 67.2226L103.791 67.2001C104.341 67.227 104.859 67.6822 104.835 68.2317L104.859 70.4222C104.835 70.9717 104.382 71.4868 103.832 71.4599L103.468 71.4824C102.918 71.4555 102.587 71.0497 102.554 70.5646L102.578 68.1884C102.481 67.6464 102.877 67.1957 103.427 67.2226ZM103.581 59.4801C104.252 59.4995 104.834 60.0115 104.818 60.6823L104.843 62.8729C104.843 63.7862 103.848 64.3957 103.031 64.0199C102.452 63.7206 102.418 63.1317 102.385 62.5684L102.385 62.5673C102.382 62.5167 102.379 62.4663 102.376 62.4163C102.384 62.2249 102.385 62.0265 102.385 61.8233V61.8232C102.386 61.4433 102.388 61.0465 102.44 60.6465C102.343 60.1045 102.853 59.525 103.581 59.4801ZM103.378 51.8813C104.227 51.8288 104.745 52.284 104.737 53.0761L104.696 55.2097C104.705 56.2443 103.532 56.9257 102.755 56.243C102.432 55.9585 102.286 55.6022 102.302 54.9314C102.301 54.8045 102.297 54.6642 102.292 54.5154C102.257 53.4506 102.207 51.9536 103.378 51.8813ZM104.801 43.9995L104.785 47.4103C104.785 48.3236 103.855 48.99 103.038 48.6142C102.536 48.4017 102.383 47.924 102.391 47.132C102.383 46.0973 102.375 45.0627 102.358 43.9068L104.801 43.9995ZM90.9872 53.3165L91.0521 56.1135L69.6352 56.4622L69.5703 53.6653L90.9872 53.3165Z" fill="#FDC354"/>
</svg>
