<svg width="30" height="30" viewBox="0 0 30 30" fill="none" xmlns="http://www.w3.org/2000/svg">
<path d="M15.1454 29.9951C7.11437 30.2063 0.215587 23.5269 0.00493763 15.3691C-0.205712 7.13207 6.35076 0.188668 14.4871 0.00386308C22.9131 -0.180942 29.8119 6.28724 29.9962 14.6035C30.1805 22.9989 23.6241 29.8103 15.1454 29.9951ZM27.4421 15.0259C27.4684 8.1881 21.9389 2.59114 15.0664 2.53834C8.29927 2.45913 2.61173 8.0825 2.5854 14.8939C2.53274 21.7845 8.16762 27.4607 14.9874 27.4607C21.8072 27.4607 27.4157 21.8373 27.4421 15.0259Z" fill="#FFA800"/>
<path d="M15.3296 14.3927C17.3571 13.4951 19.1476 12.6767 20.9381 11.8846C21.2278 11.7526 21.5174 11.515 21.8071 11.5414C22.2284 11.5678 22.6233 11.8054 23.0446 11.9374C22.8603 12.3335 22.8077 12.9143 22.4917 13.0727C21.4648 13.6799 20.3589 14.1551 19.3056 14.6567C17.989 15.2903 16.6725 15.9504 15.3559 16.5576C14.171 17.112 13.5917 16.7688 13.5654 15.5015C13.5391 12.6767 13.5127 9.85178 13.5917 7.0269C13.5917 6.63089 14.1447 6.23488 14.4343 5.83887C14.7503 6.23488 15.3033 6.60449 15.3033 7.0005C15.3822 9.37657 15.3296 11.7526 15.3296 14.3927Z" fill="#FFA800"/>
</svg>
